<svg id="Слой_1" xmlns="http://www.w3.org/2000/svg" xmlns:xlink="http://www.w3.org/1999/xlink" viewBox="0 0 260 180"><style>.st0,.st1{fill:#f4943f}.st1{clip-path:url(#SVGID_2_)}.st2{fill:#f4943f}</style><path class="st0" d="M3.4 9.5c0-.1.1-.1.1-.2-.1.1-.1.1-.1.2zm0 0M3.2 9.8c0-.1.1-.1.1-.2-.1.1-.1.2-.1.2zm0 0M3.6 9.1l.1-.1-.1.1zm0 0M3 10.2c0-.1 0-.1.1-.2 0 .1-.1.1-.1.2zm0 0M5.1 7.8c.1 0 .1-.1.2-.1-.1.1-.1.1-.2.1zm0 0M3.9 8.7s0 .1 0 0c0 .1 0 0 0 0 .1 0 0 0 0 0zm0 0M4.1 8.5l.1-.1s0 .1-.1.1zm0 0M2.9 10.6v-.2.2zm0 0M4.4 8.3c.1 0 .1-.1.2-.1-.1 0-.1 0-.2.1zm0 0"/><defs><path id="SVGID_1_" d="M2.9 7.1h255.7v174.1"/></defs><clipPath id="SVGID_2_"><use xlink:href="#SVGID_1_" overflow="visible"/></clipPath><path class="st1" d="M6.3 7.5h.2c-.1-.1-.2 0-.2 0zm0 0M2.8 11v-.2c.1.1.1.1 0 .2zm0 0"/><path class="st0" d="M6.6 7.4h0zm0 0M4.8 8s.1 0 .1-.1c0 .1-.1.1-.1.1zm0 0M5.9 7.5h.2-.2zm0 0M5.5 7.7c.1 0 .1 0 .2-.1-.1 0-.2 0-.2.1zm0 0"/><path class="st2" d="M254.4 7.4H6.9 5.8c-.1 0-.1 0-.2.1-.1 0-.1 0-.2.1-.1 0-.1 0-.2.1-.1 0-.1.1-.2.1 0 .1 0 .1-.1.1 0 .1-.1.1-.1.1-.1 0-.1.1-.2.1s-.1.1-.2.1-.1.1-.2.1l-.1.1c0 .2-.1.2-.1.3l-.1.1c-.1.1-.2.1-.2.2l-.1.1c0 .1-.1.1-.1.2s-.1.1-.1.2-.1.1-.1.2-.1.1-.1.2-.1.1-.1.2 0 .1-.1.2c0 .1 0 .1-.1.2v160.4c0 2.3 2.2 4.3 4.4 4.3h247.2c2.3 0 4.1-2.3 4.1-4.6v-159c0-2.3-1.9-4.2-4.2-4.2zM5.3 167.2V9.9h41.5v162.5H5.3v-5.2zm44.1 5.2v-52.5H85c1.6 0 2.7 0 2.7-1.2 0-1.3-1-1.3-2.5-1.3H49.5V10.2H256v107.2H100.4c-2.3 0-2.1 1.3-2.1 1.3s-.2 1.2 2 1.2H256v52.5H49.4zm5.7 0"/><path class="st2" d="M4.4 51.7V48l9.3-8.7s1.1-1.1 2-.2c.9.9 0 1.8 0 1.8L6.2 50 26 69l19.7-19L4.1 10.5l1.8-1.8 20 19L46 8.5l2.7 1-21 20 19.8 18.8v3.5L26 72.2 4.4 51.7z"/><path class="st2" d="M4.4 92.7V89l9.3-8.7s1.1-1.1 2-.2c.9.9 0 1.8 0 1.8L6.2 91 26 110l19.7-19L4.1 51.5l1.8-1.8 20 19L46 49.5l2.7 1-21 20 19.8 18.8v3.5L26 113.2 4.4 92.7z"/><path class="st2" d="M4.4 133.9v-3.7l9.3-8.7s1.1-1.1 2-.2c.9.9 0 1.8 0 1.8l-9.5 9.1 19.8 19 19.7-19L4.1 92.8 5.9 91l20 19L46 90.8l2.7 1-21 20 19.8 18.8v3.5L26 154.5 4.4 133.9z"/><path class="st2" d="M45.3 173.9h2.2v-2.1L27.7 153l21-20-2.7-1-20.1 19.2-20-19-1.8 1.8 41.6 39.4-.4.5z"/></svg>
