<svg xmlns="http://www.w3.org/2000/svg" viewBox="0 0 512 512" width="512" height="512"><path d="M422.268 21.113v-2.64C422.268 8.29 413.98 0 403.794 0H382.68c-10.186 0-18.474 8.288-18.474 18.474v2.64H285.03v-2.64C285.03 8.288 276.744 0 266.558 0h-21.113c-10.186 0-18.474 8.288-18.474 18.474v2.64h-79.175v-2.64C147.795 8.288 139.505 0 129.32 0h-21.113C98.02 0 89.732 8.288 89.732 18.474v2.64H0V512h512V21.113h-89.732zm-42.227-2.64c0-1.43 1.21-2.638 2.64-2.638h21.113c1.43 0 2.64 1.21 2.64 2.64V63.34H380.04V18.474zm-137.236 0c0-1.43 1.21-2.638 2.64-2.638h21.112c1.43 0 2.64 1.21 2.64 2.64V63.34h-26.393V18.474zm-137.237 0c0-1.43 1.21-2.638 2.64-2.638h21.112c1.43 0 2.638 1.21 2.638 2.64V63.34h-26.392V18.474zm390.598 477.692H15.835V163.63h480.33v332.535zm0-348.37H15.835V121.4h424.907v-15.835H15.835v-68.62h73.897v42.228h58.062V36.948h79.175v42.227h58.06V36.948h79.176v42.227h58.062V36.948h73.897v110.846z" fill="#f4943f"/><path d="M36.948 184.742v290.31H475.05V184.74H36.95zm105.567 274.474h-89.73V411.71h89.73v47.506zm0-63.34h-89.73v-58.062h89.73v58.062zm0-73.897h-89.73v-52.785h89.73v52.784zm0-68.62h-89.73v-52.783h89.73v52.784zm105.567 205.856H158.35V411.71h89.732v47.506zm0-63.34H158.35v-58.062h89.732v58.062zm0-73.897H158.35v-52.785h89.732v52.784zm0-68.62H158.35v-52.783h89.732v52.784zM353.65 459.217h-89.733V411.71h89.732v47.506zm0-63.34h-89.733v-58.062h89.732v58.062zm0-73.897h-89.733v-52.785h89.732v52.784zm0-68.62h-89.733v-52.783h89.732v52.784zm105.566 205.856h-89.732V411.71h89.732v47.506zm0-63.34h-89.732v-58.062h89.732v58.062zm0-73.897h-89.732v-52.785h89.732v52.784zm0-68.62h-89.732v-52.783h89.732v52.784z" fill="#f4943f"/></svg>