<svg id="Слой_2" xmlns="http://www.w3.org/2000/svg" viewBox="0 0 250 240"><style>.st0{fill:#f4943f}</style><path class="st0" d="M44.3 71.9h99.1c3.9 0 7.1-3.2 7.1-7.1 0-3.9-3.2-7.1-7.1-7.1H44.3c-3.9 0-7.1 3.2-7.1 7.1 0 3.9 3.2 7.1 7.1 7.1zm0 0M44.3 96.3h99.1c3.9 0 7.1-3.2 7.1-7.1 0-3.9-3.2-7.1-7.1-7.1H44.3c-3.9 0-7.1 3.2-7.1 7.1 0 3.9 3.2 7.1 7.1 7.1zm0 0M96.8 187.8H44.3c-3.9 0-7.1 3.2-7.1 7.1 0 3.9 3.2 7.1 7.1 7.1h52.4c3.9 0 7.1-3.2 7.1-7.1.1-3.9-3.1-7.1-7-7.1zm0 0"/><path class="st0" d="M244.3 19.5L223.4 7c-1.6-1-3.5-1.3-5.4-.8-1.8.5-3.4 1.6-4.4 3.2L177.2 70V33.9c0-16.2-14.8-13.3-14.2-13.9H18.5C3.9 20 3.9 33.9 3.9 33.9v186.2s0 14.4 13.9 14.4h144.9c13.8 0 14.2-14.4 14.2-14.4l.4-75 69.5-115.7c1.9-3.5.8-7.8-2.5-9.9zm-91.8 139.2l-11.8 9.8 3.1-15L212 39.9l8.7 5.2-68.2 113.6zM228 32.9l-8.7-5.2 2.9-4.8 8.7 5.2-2.9 4.8zM13.8 224.6V30.4h153.4v57l-16.6 27.3c0-.3.1-.7.1-1 0-3.9-3.2-7.1-7.1-7.1H44.3c-3.9 0-7.1 3.2-7.1 7.1 0 3.9 3.2 7.1 7.1 7.1h99.1c1.6 0 3-.5 4.2-1.4l-7 11.6H44.3c-3.9 0-7.1 3.2-7.1 7.1 0 3.9 3.2 7.1 7.1 7.1h87.9l-1.2 2c-.4.7-.7 1.4-.9 2.2l-1.2 5.9H44.3c-3.9 0-7.1 3.2-7.1 7.1 0 3.9 3.2 7.1 7.1 7.1H126l-3.3 15.9c-.6 3 .7 6 3.3 7.5 1.1.7 2.4 1 3.7 1 1.6 0 3.2-.6 4.5-1.6l28.3-23.5c.2-.2 8.7-7.6 4.6-4.1v59.8H13.8zm0 0"/></svg>
