<svg id="Слой_1" xmlns="http://www.w3.org/2000/svg" viewBox="0 0 260 180"><style>.st0{fill:#f4943f}</style><path class="st0" d="M254.9 2.6H5.8c-2.3 0-4.2 1.9-4.2 4.2v166.1c0 2.3 1.2 3.8 3.8 3.8h200.2c2.5 0 3.3 0 3.3-1.2 0-1.3-1.2-1.3-3.5-1.3H4.5V5.4h251.8v168.7h-35.5c-2.3 0-3.2 0-3.2 1.5 0 1.4 1.1 1.4 3.4 1.4h34c2.3 0 4.2-1.9 4.2-4.2V6.8c-.1-2.3-2-4.2-4.3-4.2zm0 0"/><path class="st0" d="M50.7 120.1L39 106.3l10.9-12.5c1.6-1.8 1.9-5.5.6-7L39 73.7l6.5-7.1 5-5.7c1.4-1.6 1.4-4.5 0-6.1L39 41.4l11.6-13.2c1.5-1.7 1.2-2.3.6-3-.5-.6-1.2-.5-2.7 1.2L37.1 39.2 25.6 26c-1.5-1.7-2.5-1.4-2.9-1.1-.4.3-1.1 1 .4 2.8l12.2 13.6-12 13.7c-1.4 1.6-1.4 3.9 0 5.5l11.9 13.3-11.3 12.8c-1.9 1.7-2.1 4.3-.7 5.9l12.1 13.8L23 120.2c-1.4 1.6-1.4 3.4 0 5L35 139l-11.3 12.9c-1.5 1.7-2.2 2.5-1.2 3.5 1.1.9 2.4-.5 3.2-1.5l11.2-12.8 11 12.7c.8.9 2.4 2.7 3.6 1.8 1.1-.8 0-2-1.5-3.7L38.8 139l11.7-13.6c1.4-1.6 1.4-4.1 0-5.7l.2.4zm-26-62.5l12.4-14.1 12.4 14.2-12.4 14.1-12.4-14.2zm0 32.4l12.4-14.1L49.5 90l-12.4 14.1L24.7 90zm-.1 32.8l12.3-14 12.4 13.9-12.4 14.1-12.3-14zm7-.3"/><g id="XMLID_1_"><path class="st0" d="M210.1 64.3c.8 0 1.4.6 1.4 1.4 0 .8-.6 1.4-1.4 1.4h-28.9c-.1-1-.2-1.9-.3-2.8h29.2zM198.6 78.8c.5 0 1 .6 1 1.4 0 .8-.4 1.4-1 1.4h-19.8c.4-.9.7-1.9 1-2.8h18.8zM181.1 67.1c.1.7.1 1.5.1 2.2 0 3.3-.5 6.5-1.4 9.5h-2.3c-.3 0-.6.3-.8.6h-.1c1.1-3.1 1.8-6.5 1.8-10 0-.9 0-1.9-.1-2.8.3.4.7.6 1.2.6h1.6z"/><path class="st0" d="M181.1 67.1h-1.7c-.5 0-.9-.2-1.2-.6 0-.4-.1-.9-.2-1.3.2-.5.7-.9 1.3-.9h1.4c.2.9.4 1.9.4 2.8zM177.5 78.8h2.3c-.3 1-.6 1.9-1 2.8h-1.2c-.5 0-1-.6-1-1.4 0-.3.1-.6.2-.8.1-.4.4-.6.7-.6z"/><path class="st0" d="M177.5 81.6h1.2c-1.4 3.3-3.3 6.4-5.7 9.1l-10.4 4.6c6.4-3.4 11.4-9 13.9-15.9h.1c-.1.2-.2.5-.2.8.2.8.6 1.4 1.1 1.4z"/><path class="st0" d="M162.7 95.3l10.4-4.6c-2.5 2.8-5.5 5.2-8.9 7l-4 1.7.4-.6c.3-.4 0-1.2-.7-1.6-.3-.2-.7-.3-1-.3h-.1c1.4-.4 2.7-1 3.9-1.6z"/><path class="st0" d="M160 97.2c.6.4.9 1.1.7 1.6l-.4.6-.4.2c-.1.1-.2.1-.3.1h-.1c-.4 0-.9-.4-1.2-1-.2-.5-.2-1.1 0-1.4.1-.1.2-.2.3-.2l.4-.2h.1c.2 0 .6.1.9.3z"/><path class="st0" d="M160.2 99.5l-11.1 17c-.1.2-.4.3-.7.3-.3 0-.7-.1-1-.3-.6-.4-.9-1.1-.7-1.6l9.3-14.2c1.2-.3 2.3-.6 3.5-1h.1l.2-.1c.2 0 .3-.1.4-.1z"/><path class="st0" d="M159.4 99.8h.1c-1.1.4-2.3.7-3.5 1l2.2-3.4c-.2.3-.3.9 0 1.4.2.6.7 1 1.2 1zM139.6 97.1c.5.2.6 1 .3 1.7-.3.6-.7 1-1.2 1h-.1c-.1 0-.1 0-.2-.1l-4.6-2c-3.3-1.8-6.2-4.1-8.7-6.9l10.3 4.5c1.3.7 2.6 1.3 4 1.8h.2zM135.3 95.2L125 90.7c-2.3-2.6-4.2-5.6-5.6-8.8h.8c.5 0 1-.6 1-1.4 0-.3-.1-.6-.2-.8l.5-.2c2.6 6.8 7.5 12.3 13.8 15.7z"/><path class="st0" d="M121.6 79.5l-.5.2c-.2-.4-.5-.6-.8-.6h-1.8c-1-3.1-1.5-6.3-1.5-9.7 0-.6 0-1.3.1-1.9h1.4c.8 0 1.4-.6 1.4-1.4h.1c-.1 1.1-.2 2.2-.2 3.3 0 3.5.6 6.9 1.8 10.1z"/><path class="st0" d="M121.1 79.7c.1.2.2.5.2.8 0 .8-.4 1.4-1 1.4h-.8c-.4-.9-.7-1.9-1-2.8h1.8c.3 0 .6.2.8.6z"/><path class="st0" d="M119.5 81.9H99.2c-.5 0-1-.6-1-1.4 0-.8.4-1.4 1-1.4h19.2c.3.9.7 1.9 1.1 2.8zM118.4 64.6c.8 0 1.4.6 1.4 1.4 0 .8-.6 1.4-1.4 1.4H117c.1-.9.1-1.9.3-2.8h1.1z"/><path class="st0" d="M87.7 64.6h29.6c-.1.9-.2 1.9-.3 2.8H87.7c-.8 0-1.4-.6-1.4-1.4 0-.8.7-1.4 1.4-1.4z"/></g><path class="st0" d="M149.3 49.5c12.1 0 21.9 9.8 21.9 21.9s-9.8 21.9-21.9 21.9c-12.1 0-21.9-9.8-21.9-21.9s9.8-21.9 21.9-21.9zm19.4 21.9c0-10.7-8.7-19.4-19.4-19.4s-19.4 8.7-19.4 19.4 8.7 19.4 19.4 19.4c10.7-.1 19.4-8.7 19.4-19.4z" id="XMLID_2_"/></svg>
