<svg xmlns="http://www.w3.org/2000/svg" viewBox="0 0 64.002 64.002" width="512" height="512"><g fill="#f4943f"><path d="M54.628 9.375C48.584 3.33 40.548 0 32 0 23.454 0 15.42 3.33 9.375 9.376 3.33 15.42 0 23.455 0 32s3.33 16.583 9.374 22.627C15.418 60.672 23.454 64 32 64c8.548 0 16.584-3.328 22.628-9.373 6.045-6.044 9.374-14.08 9.374-22.626s-3.33-16.58-9.374-22.625zm-1.414 43.838C47.548 58.88 40.014 62 32 62c-8.013 0-15.546-3.12-21.212-8.787C5.12 47.547 2 40.013 2 32s3.12-15.545 8.788-21.21C16.454 5.12 23.988 2 32 2c8.014 0 15.548 3.122 21.214 8.79 5.667 5.665 8.788 13.198 8.788 21.21s-3.12 15.547-8.788 21.213z"/><path d="M31 16h-8v18h-4v2h4v4h-4v2h4v6h2v-6h7v-2h-7v-4l5.91-.003c.053.005.39.033.922.033 1.75 0 5.594-.308 8.304-2.784C42.036 31.51 43 29.073 43 26s-.964-5.51-2.864-7.244C36.603 15.526 31.14 15.983 31 16zm7.796 15.763C35.92 34.396 31.14 34.01 31 34h-6V18l6.09-.003c.048-.005 4.807-.403 7.697 2.235 1.47 1.34 2.213 3.283 2.213 5.77 0 2.48-.74 4.42-2.204 5.76z"/></g></svg>