<svg id="Слой_1" xmlns="http://www.w3.org/2000/svg" viewBox="0 0 280 255">
  <style>.st0,.st1{fill:#e6383b}.st1{fill-rule:evenodd;clip-rule:evenodd}</style>
  <path class="st0" d="M205.2 247.3h-38.5v-27c0-2.6-3.7-2.6-3.7 0v27h-42.9v-27c0-2.6-3.8-2.6-3.8 0v27H83.5c-2.1 0-2.4 2.8.3 2.8h121.5c2.4 0 2.4-2.8.3-2.8h-.4zM260.9 6.4H27.7c-12 0-23.3 11.3-23.3 23.3v168c0 12 11.8 16.8 23.8 16.8h232.2c12 0 17.3-11.4 17.3-16.8V29c0-12-4.8-22.6-16.8-22.6zm14 191.3c0 6.8-6 14-14 14H27.7c-9.9 0-20.6-4.3-20.6-14v-168C7.1 19 16.4 9.2 27.7 9.2H261c9.1 0 14 8.7 14 20.6v167.9zm0 0"/>
  <path class="st0" d="M254.5 25.1h-227c-2.5 0-4.5 2.1-4.5 4.7v149.3c0 2.6 2 4.7 4.5 4.7h226.9c2.5 0 4.5-2.1 4.5-4.7V29.8c.1-2.6-1.9-4.7-4.4-4.7zm.5 156H27.1s-1.5.2-1.5-1.6V29.6c0-1.7 1.7-2 1.7-2h227.2c1.9 0 1.9 2 1.9 2v150.2c-.1.1.1 1.3-1.4 1.3zm-5.1-6.7"/>
  <path class="st0" d="M111.1 145.9s59.7-34.5 60.6-35 0-.8 0-.8-58.2-33.6-59.9-34.6c-1.7-1-1.8-.2-1.8-.2v69.9c0 1.3 1.1.7 1.1.7zm-1.1-74s62.4 35.8 64.8 37.2c2.4 1.4 0 2.9 0 2.9S112 148 110 149.2c-2 1.1-2.7-1.4-2.7-1.4V73.2c0-3.5 2.7-1.3 2.7-1.3z" id="XMLID_1_"/>
</svg>
