<svg id="Слой_1" xmlns="http://www.w3.org/2000/svg" viewBox="0 0 280 300"><style>.st0{fill:#e6383b}</style><path class="st0" d="M277.8 5.2v90.3c0 1-.8 1.6-1.4 1.6H259v14.3c0 1.2-1 1.2-1 1.2l-28.3-.2v-2.6h25.5c1.2 0 1-1.1 1-1.1V22.4c0-1.4-1.3-1.5-1.3-1.5H140s-1.1-.3-1.1 1.1V109.2c0 .6.6.6.6.6H192v2.6h-55.2s-.7-.1-.7-.8V19.5c0-1.1 1.2-1.2 1.2-1.2h14.2V4.5c0-1.2 1.5-1.2 1.5-1.2h123c0-.1 1.8-.1 1.8 1.9zM275 93.3V7.5c0-1-.4-1.5-1.5-1.5H155.3c-1.4 0-1.1 1-1.1 1v11.1h103.3s1.5.3 1.5 1.5v74.7h15.1s.9-.1.9-1z"/><path class="st0" d="M229.7 109.8v2.6L193 148.7s-.9.8-.9-.1V109.8h2.1s1 .2 1 1v31.1c0 .6.7.2.7.2l31.6-31.6c.7-.7 1.6-.6 1.6-.6h.6zM77.3 236.6c23.4 0 41.9-18.9 41.9-41.9v-88.3c0-23.4-18.9-41.9-41.9-41.9-23.4 0-41.9 18.9-41.9 41.9v88.3c0 23 19 41.9 41.9 41.9zM38.8 106c0-17.1 14.8-38 38.5-38s38.6 19 38.6 38v88.1c0 17.1-14.3 39.2-39.5 39.2-23.5 0-37.6-21.7-37.6-39.9V106zm7.9 0"/><path class="st0" d="M125.1 293h-46v-23.4c38.6 0 72.6-35.6 72.6-73.9 0-2.4-3.9-2.6-3.9.1 0 36.1-32.5 70.4-70.5 70.4-37.2 0-71-33.9-71-70.3 0-2.5-3.3-2.1-3.3-.2 0 38.8 34.4 73.9 72.8 73.9V293H29.6c-2.1 0-2.8 3.5 0 3.5h95.5c2.3 0 2.3-3.5 0-3.5zm0 0"/><g><path class="st0" d="M147.7 57.1c1.4-.2 3-.4 4.8-.4 3.3 0 5.6.8 7.1 2.2 1.6 1.4 2.5 3.5 2.5 6.3 0 2.9-.9 5.2-2.5 6.8-1.6 1.6-4.4 2.5-7.8 2.5-1.6 0-3-.1-4.1-.2V57.1zm2.2 15.6c.6.1 1.4.1 2.3.1 4.8 0 7.5-2.7 7.5-7.5 0-4.1-2.3-6.8-7.1-6.8-1.2 0-2.1.1-2.7.2v14zM167.3 56.9v10.4c0 3.9 1.7 5.6 4.1 5.6 2.6 0 4.3-1.7 4.3-5.6V56.9h2.3v10.2c0 5.4-2.8 7.6-6.6 7.6-3.6 0-6.3-2.1-6.3-7.5V56.9h2.2zM181.9 57.1c1-.2 2.6-.4 4.1-.4 2.3 0 3.7.4 4.8 1.3.9.7 1.5 1.7 1.5 3.1 0 1.7-1.1 3.2-3 3.9 1.7.4 3.6 1.8 3.6 4.4 0 1.5-.6 2.7-1.5 3.5-1.2 1.1-3.2 1.6-6.1 1.6-1.6 0-2.8-.1-3.5-.2V57.1zm2.3 7.2h2.1c2.4 0 3.8-1.3 3.8-2.9 0-2.1-1.6-2.9-3.9-2.9-1 0-1.6.1-2 .2v5.6zm0 8.4c.4.1 1.1.1 1.9.1 2.3 0 4.5-.9 4.5-3.4 0-2.4-2.1-3.4-4.5-3.4h-1.9v6.7zM196 57.1c1-.2 2.6-.4 4.1-.4 2.3 0 3.7.4 4.8 1.3.9.7 1.5 1.7 1.5 3.1 0 1.7-1.1 3.2-3 3.9 1.7.4 3.6 1.8 3.6 4.4 0 1.5-.6 2.7-1.5 3.5-1.2 1.1-3.2 1.6-6.1 1.6-1.6 0-2.8-.1-3.5-.2V57.1zm2.3 7.2h2.1c2.4 0 3.8-1.3 3.8-2.9 0-2.1-1.6-2.9-3.9-2.9-1 0-1.6.1-2 .2v5.6zm0 8.4c.4.1 1.1.1 1.9.1 2.3 0 4.5-.9 4.5-3.4 0-2.4-2.1-3.4-4.5-3.4h-1.9v6.7zM212.5 56.9v17.6h-2.3V56.9h2.3zM216.4 74.5V56.9h2.5l5.6 8.9c1.3 2.1 2.3 3.9 3.2 5.7h.1c-.2-2.3-.3-4.5-.3-7.2v-7.4h2.1v17.6h-2.3l-5.6-8.9c-1.2-2-2.4-4-3.3-5.9h-.1c.1 2.2.2 4.3.2 7.2v7.5h-2.1zM247 73.7c-1 .4-3 1-5.4 1-2.7 0-4.8-.7-6.6-2.3-1.5-1.5-2.5-3.8-2.5-6.5 0-5.2 3.6-9.1 9.5-9.1 2 0 3.6.4 4.4.8l-.5 1.9c-.9-.4-2.1-.8-3.9-.8-4.3 0-7.1 2.7-7.1 7.1 0 4.5 2.7 7.1 6.8 7.1 1.5 0 2.5-.2 3-.5v-5.2h-3.6v-1.8h5.8v8.3z"/></g></svg>
