<?xml version="1.0" encoding="utf-8"?>
<!-- Generator: Adobe Illustrator 20.1.0, SVG Export Plug-In . SVG Version: 6.00 Build 0)  -->
<svg version="1.1" id="Слой_1" xmlns="http://www.w3.org/2000/svg" xmlns:xlink="http://www.w3.org/1999/xlink" x="0px" y="0px"
	 viewBox="0 0 200 300" style="enable-background:new 0 0 200 300;" xml:space="preserve">
<style type="text/css">
	.st0{fill:#BC4F46;}
</style>
<path class="st0" d="M101,220.8c31.1,0,56.4-25.3,56.4-56.4V61.1c0-31.1-25.3-56.4-56.4-56.4C69.9,4.7,44.6,30,44.6,61.1v103.4
	C44.6,195.5,69.9,220.8,101,220.8L101,220.8z M54,98.6c2.6,0,4.7-2.1,4.7-4.7c0-2.6-2.1-4.7-4.7-4.7V65.8c2.6,0,4.7-2.1,4.7-4.7
	c0-2.5-2-4.5-4.5-4.7c1.7-16.8,12.2-31,26.9-37.9c0.4,0.1,0.7,0.2,1.1,0.2c1.7,0,3.1-0.9,3.9-2.2c3.3-1.1,6.7-1.9,10.2-2.2
	c0.1,2.5,2.1,4.5,4.7,4.5c2.5,0,4.5-2,4.7-4.5c3.5,0.4,7,1.1,10.2,2.2c0.8,1.3,2.2,2.2,3.9,2.2c0.4,0,0.7-0.1,1.1-0.2
	c14.6,6.9,25.2,21.1,26.9,37.9c-2.5,0.1-4.5,2.1-4.5,4.7c0,2.6,2.1,4.7,4.7,4.7v23.5c-2.6,0-4.7,2.1-4.7,4.7c0,2.6,2.1,4.7,4.7,4.7
	v9.4H54V98.6z M54,117.4h94v9.4H54V117.4z M54,136.2h94v28.2c0,25.9-21.1,47-47,47c-25.9,0-47-21.1-47-47V136.2z M54,136.2"/>
<path class="st0" d="M166.8,164.4c0,36.3-29.5,65.8-65.8,65.8c-36.3,0-65.8-29.5-65.8-65.8v-54c0,0,0.7-7.1-4.5-7.1
	s-4.9,7.3-4.9,7.3v53.8c0,35,24,64.3,56.4,72.7v49.5H31.9c0,0-6.1,0.1-6.1,4.5c0,4.9,6.1,4.9,6.1,4.9h137.8c0,0,6.5,0.4,6.5-4.9
	s-5.9-4.5-5.9-4.5h-50.5v-49.5c32.4-8.4,56.4-37.7,56.4-72.7v-53.5c0,0,0.2-7.5-4.9-7.5s-4.5,7.5-4.5,7.5V164.4z M91.6,286.6V239
	c3.1,0.4,6.2,0.6,9.4,0.6c3.2,0,6.3-0.3,9.4-0.6v47.6H91.6z M91.6,286.6"/>
<path class="st0" d="M77.5,93.9c0,2.6-2.1,4.7-4.7,4.7c-2.6,0-4.7-2.1-4.7-4.7c0-2.6,2.1-4.7,4.7-4.7C75.4,89.2,77.5,91.3,77.5,93.9
	L77.5,93.9z M77.5,93.9"/>
<path class="st0" d="M96.3,93.9c0,2.6-2.1,4.7-4.7,4.7c-2.6,0-4.7-2.1-4.7-4.7c0-2.6,2.1-4.7,4.7-4.7C94.2,89.2,96.3,91.3,96.3,93.9
	L96.3,93.9z M96.3,93.9"/>
<path class="st0" d="M115.1,93.9c0,2.6-2.1,4.7-4.7,4.7c-2.6,0-4.7-2.1-4.7-4.7c0-2.6,2.1-4.7,4.7-4.7
	C113,89.2,115.1,91.3,115.1,93.9L115.1,93.9z M115.1,93.9"/>
<path class="st0" d="M133.9,93.9c0,2.6-2.1,4.7-4.7,4.7c-2.6,0-4.7-2.1-4.7-4.7c0-2.6,2.1-4.7,4.7-4.7
	C131.8,89.2,133.9,91.3,133.9,93.9L133.9,93.9z M133.9,93.9"/>
<path class="st0" d="M68.1,75.2c0,2.6-2.1,4.7-4.7,4.7c-2.6,0-4.7-2.1-4.7-4.7c0-2.6,2.1-4.7,4.7-4.7C66,70.5,68.1,72.6,68.1,75.2
	L68.1,75.2z M68.1,75.2"/>
<path class="st0" d="M86.9,75.2c0,2.6-2.1,4.7-4.7,4.7c-2.6,0-4.7-2.1-4.7-4.7c0-2.6,2.1-4.7,4.7-4.7C84.8,70.5,86.9,72.6,86.9,75.2
	L86.9,75.2z M86.9,75.2"/>
<path class="st0" d="M105.7,75.2c0,2.6-2.1,4.7-4.7,4.7c-2.6,0-4.7-2.1-4.7-4.7c0-2.6,2.1-4.7,4.7-4.7
	C103.6,70.5,105.7,72.6,105.7,75.2L105.7,75.2z M105.7,75.2"/>
<path class="st0" d="M124.5,75.2c0,2.6-2.1,4.7-4.7,4.7c-2.6,0-4.7-2.1-4.7-4.7c0-2.6,2.1-4.7,4.7-4.7
	C122.4,70.5,124.5,72.6,124.5,75.2L124.5,75.2z M124.5,75.2"/>
<path class="st0" d="M143.3,75.2c0,2.6-2.1,4.7-4.7,4.7c-2.6,0-4.7-2.1-4.7-4.7c0-2.6,2.1-4.7,4.7-4.7
	C141.2,70.5,143.3,72.6,143.3,75.2L143.3,75.2z M143.3,75.2"/>
<path class="st0" d="M77.5,61.1c0,2.6-2.1,4.7-4.7,4.7c-2.6,0-4.7-2.1-4.7-4.7c0-2.6,2.1-4.7,4.7-4.7C75.4,56.4,77.5,58.5,77.5,61.1
	L77.5,61.1z M77.5,61.1"/>
<path class="st0" d="M96.3,61.1c0,2.6-2.1,4.7-4.7,4.7c-2.6,0-4.7-2.1-4.7-4.7c0-2.6,2.1-4.7,4.7-4.7C94.2,56.4,96.3,58.5,96.3,61.1
	L96.3,61.1z M96.3,61.1"/>
<path class="st0" d="M115.1,61.1c0,2.6-2.1,4.7-4.7,4.7c-2.6,0-4.7-2.1-4.7-4.7c0-2.6,2.1-4.7,4.7-4.7
	C113,56.4,115.1,58.5,115.1,61.1L115.1,61.1z M115.1,61.1"/>
<path class="st0" d="M133.9,61.1c0,2.6-2.1,4.7-4.7,4.7c-2.6,0-4.7-2.1-4.7-4.7c0-2.6,2.1-4.7,4.7-4.7
	C131.8,56.4,133.9,58.5,133.9,61.1L133.9,61.1z M133.9,61.1"/>
<path class="st0" d="M68.1,47c0,2.6-2.1,4.7-4.7,4.7c-2.6,0-4.7-2.1-4.7-4.7c0-2.6,2.1-4.7,4.7-4.7C66,42.3,68.1,44.4,68.1,47
	L68.1,47z M68.1,47"/>
<path class="st0" d="M86.9,47c0,2.6-2.1,4.7-4.7,4.7c-2.6,0-4.7-2.1-4.7-4.7c0-2.6,2.1-4.7,4.7-4.7C84.8,42.3,86.9,44.4,86.9,47
	L86.9,47z M86.9,47"/>
<path class="st0" d="M105.7,47c0,2.6-2.1,4.7-4.7,4.7c-2.6,0-4.7-2.1-4.7-4.7c0-2.6,2.1-4.7,4.7-4.7C103.6,42.3,105.7,44.4,105.7,47
	L105.7,47z M105.7,47"/>
<path class="st0" d="M124.5,47c0,2.6-2.1,4.7-4.7,4.7c-2.6,0-4.7-2.1-4.7-4.7c0-2.6,2.1-4.7,4.7-4.7C122.4,42.3,124.5,44.4,124.5,47
	L124.5,47z M124.5,47"/>
<path class="st0" d="M143.3,47c0,2.6-2.1,4.7-4.7,4.7c-2.6,0-4.7-2.1-4.7-4.7c0-2.6,2.1-4.7,4.7-4.7C141.2,42.3,143.3,44.4,143.3,47
	L143.3,47z M143.3,47"/>
<path class="st0" d="M77.5,32.9c0,2.6-2.1,4.7-4.7,4.7c-2.6,0-4.7-2.1-4.7-4.7c0-2.6,2.1-4.7,4.7-4.7C75.4,28.2,77.5,30.3,77.5,32.9
	L77.5,32.9z M77.5,32.9"/>
<path class="st0" d="M96.3,32.9c0,2.6-2.1,4.7-4.7,4.7c-2.6,0-4.7-2.1-4.7-4.7c0-2.6,2.1-4.7,4.7-4.7C94.2,28.2,96.3,30.3,96.3,32.9
	L96.3,32.9z M96.3,32.9"/>
<path class="st0" d="M115.1,32.9c0,2.6-2.1,4.7-4.7,4.7c-2.6,0-4.7-2.1-4.7-4.7c0-2.6,2.1-4.7,4.7-4.7
	C113,28.2,115.1,30.3,115.1,32.9L115.1,32.9z M115.1,32.9"/>
<path class="st0" d="M133.9,32.9c0,2.6-2.1,4.7-4.7,4.7c-2.6,0-4.7-2.1-4.7-4.7c0-2.6,2.1-4.7,4.7-4.7
	C131.8,28.2,133.9,30.3,133.9,32.9L133.9,32.9z M133.9,32.9"/>
<path class="st0" d="M12.5,136.2h-1.7c-2.1,0-3.9-1.7-3.9-3.9v-25.2c0-2.1,1.7-3.9,3.9-3.9h1.7c2.1,0,3.9,1.7,3.9,3.9v25.2
	C16.4,134.5,14.7,136.2,12.5,136.2z"/>
<path class="st0" d="M191.1,136.2h-1.7c-2.1,0-3.9-1.7-3.9-3.9v-25.2c0-2.1,1.7-3.9,3.9-3.9h1.7c2.1,0,3.9,1.7,3.9,3.9v25.2
	C195,134.5,193.2,136.2,191.1,136.2z"/>
</svg>
