<svg xmlns="http://www.w3.org/2000/svg" viewBox="0 0 452.84 452.84" width="512" height="512"><g fill="#c93e4e"><path d="M449.483 190.4l-57.823-38.336V23.93a7.5 7.5 0 0 0-7.5-7.5H68.67a7.5 7.5 0 0 0-7.5 7.5v128.143L3.356 190.4A7.49 7.49 0 0 0 0 196.65v232.26a7.5 7.5 0 0 0 7.5 7.5h437.84a7.5 7.5 0 0 0 7.5-7.5V196.65a7.493 7.493 0 0 0-3.357-6.25zM61.17 216.63l-23.525-12.48H61.17v12.48zM15 209.117l172.475 91.49L15 414.935V209.118zm211.417 83.67L420.454 421.41H32.38l194.037-128.62zm38.945 7.82l172.477-91.49v205.82L265.36 300.61zM391.66 204.15h23.536l-23.536 12.484V204.15zm28.794-15H391.66v-19.09l28.794 19.09zM376.66 31.43v193.16l-125.527 66.587-20.573-13.637a7.5 7.5 0 0 0-8.287 0l-20.57 13.635-125.533-66.59V31.43h300.49zM61.17 189.15H32.388l28.782-19.08v19.08z"/><path d="M226.415 213.67h59.754a7.5 7.5 0 0 0 0-15h-59.755c-28.813 0-52.254-23.44-52.254-52.253v-2.213c0-28.813 23.442-52.254 52.255-52.254s52.254 23.44 52.254 52.254v5.533c0 6.237-5.075 11.312-11.313 11.312s-11.312-5.075-11.312-11.313v-10.512c0-17.864-14.533-32.398-32.397-32.398s-32.397 14.533-32.397 32.398c0 17.864 14.534 32.397 32.398 32.397 8.17 0 15.636-3.045 21.34-8.052 4.644 7.483 12.932 12.478 22.37 12.478 14.507 0 26.31-11.803 26.31-26.312v-5.533c0-37.084-30.17-67.254-67.253-67.254s-67.254 30.17-67.254 67.253v2.213c0 37.085 30.17 67.255 67.255 67.255zm-2.767-57.048c-9.593 0-17.397-7.804-17.397-17.397s7.806-17.398 17.398-17.398 17.397 7.805 17.397 17.398-7.804 17.397-17.397 17.397z"/></g></svg>
