<svg id="Слой_2" xmlns="http://www.w3.org/2000/svg" viewBox="0 0 220 250"><style>.st0{fill:#f4943f}</style><path class="st0" d="M134.1 147.3c11.2-19.6 8.4-45.1-8.3-61.9-20.1-20.1-52.7-20.1-72.8 0-20.1 20.1-20.1 52.7 0 72.8 16.7 16.7 42.2 19.5 61.9 8.3l77.2 77.8c5.3 5.3 14 5.3 19.3 0 5.3-5.3 5.3-14 0-19.3m-95.9-77c-14.4 14.4-37.9 14.4-52.3 0-14.4-14.4-14.4-37.9 0-52.3 14.4-14.4 37.9-14.4 52.3 0 14.5 14.4 14.5 37.9 0 52.3zm0 0"/><path class="st0" d="M178.3 14.4H13.8v201.5h164.5V14.4zm10 197.7s1 13.9-14.7 13.9H17.4s-13.8 0-13.8-14.7V19S3.2 4.3 18.4 4.3h155.3S188.4 4 188.4 19s-.1 193.1-.1 193.1z" id="XMLID_1_"/></svg>
