<svg id="Слой_1" xmlns="http://www.w3.org/2000/svg" viewBox="0 0 260 130"><style>.st0{fill:#f4943f}</style><g id="XMLID_3_"><path class="st0" d="M214.4 47c4.1 4.8 10.2 7.8 17 7.8 12.4 0 22.5-10.1 22.5-22.5s-10-22.4-22.4-22.4c-12.5 0-22.5 10-22.5 22.4 0 5.7 2 10.8 5.4 14.7zm-1.1 4.5c-.6-.5-1.1-1.1-1.6-1.7-4.1-4.7-6.6-10.8-6.6-17.5 0-14.6 11.8-26.4 26.4-26.4 14.6 0 26.4 11.8 26.4 26.4S246 58.8 231.5 58.8c-7.1 0-13.5-2.8-18.2-7.3z"/><path class="st0" d="M211.7 49.8c.5.6 1.1 1.2 1.6 1.7l-29.9 29.9c-.6-.6-1.1-1.1-1.7-1.6l30-30z"/><path class="st0" d="M183.4 81.4c4.7 4.8 7.6 11.3 7.6 18.5 0 14.6-11.8 26.4-26.4 26.4s-26.4-11.8-26.4-26.4c0-6.8 2.6-13 6.8-17.7l2.8 2.8c-3.5 4-5.6 9.2-5.6 14.9 0 12.4 10.1 22.5 22.5 22.5s22.5-10.1 22.5-22.5c0-7-3.2-13.2-8.2-17.3l2.8-2.8c.5.5 1.1 1 1.6 1.6z"/><path class="st0" d="M181.7 79.8l-2.8 2.8c-3.9-3.2-8.9-5.1-14.3-5.1-6.7 0-12.7 2.9-16.8 7.6l-2.8-2.8c.5-.6 1.1-1.1 1.7-1.7 4.7-4.4 11-7.1 18-7.1 6.4 0 12.4 2.3 17 6.3zM184 42c.5-.5 1.4-.5 1.9 0l.2.2c.5.5.5 1.4 0 1.9L176 54.2c-.5.5-1.4.5-1.9 0l-.2-.2c-.5-.5-.5-1.4 0-1.9L184 42zM97.1 5.9c14.6 0 26.4 11.8 26.4 26.4 0 7-2.7 13.3-7.1 18-.5.6-1.1 1.1-1.7 1.6-4.7 4.2-10.9 6.8-17.6 6.8-7 0-13.4-2.7-18.1-7.2l2.8-2.8c4 3.8 9.4 6.1 15.3 6.1 12.4 0 22.5-10.1 22.5-22.5S109.5 9.9 97.1 9.9 74.6 20 74.6 32.4c0 5.6 2.1 10.8 5.5 14.7l-2.8 2.8c-4.1-4.7-6.7-10.8-6.7-17.5.1-14.6 11.9-26.5 26.5-26.5zM116.4 50.4l30.2 30.2c-.6.5-1.1 1.1-1.7 1.7L114.8 52l1.6-1.6z"/><path class="st0" d="M80.1 47.1c.5.6 1.1 1.2 1.6 1.7L79 51.6c-.6-.5-1.1-1.1-1.6-1.7l2.7-2.8z"/><path class="st0" d="M79 51.6L49.3 81.3c-.5-.6-1.1-1.1-1.7-1.6l29.8-29.8c.5.6 1 1.1 1.6 1.7zM85.8 78.1c.5-.5 1.4-.5 1.9 0l.2.2c.5.5.5 1.4 0 1.9l-10 10.1c-.5.5-1.4.5-1.9 0l-.3-.3c-.5-.5-.5-1.4 0-1.9l10.1-10z"/><path class="st0" d="M44.8 82.5c-3.9-3.2-8.8-5.1-14.2-5.1C18.1 77.4 8 87.5 8 99.9s10.1 22.5 22.5 22.5C43 122.4 53 112.3 53 99.9c0-7-3.2-13.3-8.2-17.4zm2.8-2.8c.6.5 1.2 1.1 1.7 1.6A26.3 26.3 0 0 1 57 99.9c0 14.6-11.8 26.4-26.4 26.4-14.6 0-26.4-11.8-26.4-26.4S16 73.5 30.5 73.5c6.5 0 12.5 2.3 17.1 6.2z"/></g></svg>
