<svg xmlns="http://www.w3.org/2000/svg" viewBox="0 0 512 512" width="512" height="512"><path d="M494.48 138.557L364.04 3.017A9.853 9.853 0 0 0 356.945 0h-194.41c-21.757 0-39.458 17.694-39.458 39.442v137.79H44.29c-16.278 0-29.52 13.238-29.52 29.512v147.744C14.77 370.76 28.01 384 44.29 384h78.787v88.627c0 21.71 17.7 39.373 39.458 39.373h295.238c21.757 0 39.458-17.653 39.458-39.35V145.384a9.85 9.85 0 0 0-2.75-6.828zM359.384 26.58l107.08 111.266h-107.08V26.58zM44.29 364.31c-5.42 0-9.828-4.405-9.828-9.82V206.744c0-5.415 4.41-9.82 9.828-9.82h265.882c5.42 0 9.828 4.405 9.828 9.82v147.744c0 5.415-4.41 9.82-9.828 9.82H44.29zm433.248 108.34c0 10.84-8.867 19.66-19.766 19.66H162.535c-10.9 0-19.766-8.828-19.766-19.68V384H310.17c16.278 0 29.52-13.24 29.52-29.512V206.744c0-16.274-13.242-29.513-29.52-29.513H142.77V39.443c0-10.89 8.866-19.75 19.765-19.75h177.157v128c0 5.438 4.41 9.846 9.846 9.846h128v315.11z" fill="#f4943f"/><path d="M132.48 249.894c-3.268-4.25-7.326-7.01-12.172-8.28-3.154-.845-9.923-1.268-20.308-1.268H72.596v84.577h17.077V293.02h11.135c7.73 0 13.635-.405 17.712-1.213 3-.654 5.952-1.99 8.856-4.01 2.904-2.02 5.298-4.798 7.183-8.336 1.884-3.537 2.826-7.903 2.826-13.095 0-6.73-1.636-12.22-4.905-16.47zm-14.624 23.28c-1.288 1.884-3.067 3.268-5.337 4.153s-6.77 1.327-13.5 1.327h-9.347v-24h8.25c6.154 0 10.25.192 12.288.577 2.77.5 5.06 1.75 6.866 3.75 1.808 2 2.712 4.54 2.712 7.616 0 2.5-.644 4.692-1.932 6.577zM219.48 263.452c-1.845-5.404-4.538-9.97-8.076-13.702s-7.79-6.327-12.75-7.79c-3.692-1.076-9.058-1.614-16.096-1.614h-31.212v84.577h32.135c6.31 0 11.347-.596 15.116-1.79 5.04-1.614 9.04-3.864 12-6.75 3.923-3.807 6.942-8.787 9.058-14.94 1.73-5.04 2.596-11.04 2.596-18 0-7.924-.923-14.587-2.77-19.99zm-16.615 34.73c-1.154 3.79-2.644 6.51-4.47 8.164-1.828 1.654-4.126 2.827-6.895 3.52-2.115.538-5.558.807-10.327.807h-12.75v-56.02h7.673c6.96 0 11.635.27 14.02.81 3.19.69 5.826 2.018 7.903 3.98 2.076 1.962 3.69 4.692 4.845 8.192 1.154 3.5 1.73 8.52 1.73 15.058s-.576 11.7-1.73 15.49zM294.827 254.654v-14.308h-57.98v84.577h17.076V288.98h35.308v-14.307h-35.307v-20.02z" fill="#f4943f"/></svg>