<svg id="Слой_1" xmlns="http://www.w3.org/2000/svg" viewBox="0 0 240 130">
  <style>.st0{fill-rule:evenodd;clip-rule:evenodd;fill:#e6383b}</style>
  <path class="st0" d="M44.6 23.6v81.5c0 2 2.9 2.4 2.9.4V23.6c0-2.1-2.9-2.1-2.9 0zM29.8 33.6v56.8c0 2 2.9 2.4 2.9.4V33.5c0-2-2.9-2-2.9.1zM59.4 36.2V94c0 2 2.9 2.4 2.9.4V36.2c.1-2-2.9-2-2.9 0zM74.2 13.8V116c0 2 2.9 2.4 2.9.4V13.8c.1-2.1-2.9-2.1-2.9 0zM89.3 46.5v38.1c0 2 2.9 2.4 2.9.4V46.5c0-2-2.9-2-2.9 0zM103.9 2.9V126c0 2 2.9 2.4 2.9.4V2.8c0-2-2.9-2-2.9.1zM118.7 38v55.1c0 2 2.9 2.4 2.9.4V38c0-2.1-2.9-2-2.9 0zM4.6 63.5h13.2c2 0 2.4-2.9.4-2.9H4.6c-2 0-2 2.9 0 2.9zM193 23.4v81.9c0 2 2.9 1.7 2.9-.4V23.4c.1-2-2.9-2-2.9 0zM207.9 33.4v57.2c0 2 2.9 1.7 2.9-.4V33.4c0-2-2.9-2-2.9 0zM178.2 36.1v58.1c0 2 2.9 1.7 2.9-.4V36.1c.1-2.1-2.9-2.1-2.9 0zM163.4 13.6v102.6c0 2 2.9 1.7 2.9-.4V13.6c0-2-2.9-2-2.9 0zM148.4 46.4v38.5c0 2 2.9 1.7 2.9-.4V46.4c0-2.1-2.9-2.1-2.9 0zM133.8 2.7v123.5c0 2 2.9 1.7 2.9-.4V2.7c0-2-2.9-2.1-2.9 0zM236 60.4h-13.6c-2 0-1.7 2.9.4 2.9H236c2 .1 2-2.9 0-2.9z"/>
</svg>
