<svg id="Слой_1" data-name="Слой 1" xmlns="http://www.w3.org/2000/svg" viewBox="0 0 376 376">
  <title>statistics</title>
  <path id="_table_" data-name="&lt;table&gt;" d="M488,548H154V214a6,6,0,0,0-12,0v50.67H124a6,6,0,0,0,0,12h18v44.66H124a6,6,0,0,0,0,12h18V378H124a6,6,0,0,0,0,12h18v44.67H124a6,6,0,1,0,0,12h18v44.66H124a6,6,0,0,0,0,12h18V554a6,6,0,0,0,6,6h88.67v18a6,6,0,0,0,12,0V560H387.33v18a6,6,0,0,0,12,0V560H488a6,6,0,0,0,0-12Zm0,0" transform="translate(-118 -208)"/>
  <path id="_graph-1_" data-name="&lt;graph-1&gt;" d="M180,536a6,6,0,0,0,6-6V390h50.67V530a6,6,0,0,0,12,0V446.67H296V530a6,6,0,0,0,12,0V440.67a6,6,0,0,0-6-6H248.67V384a6,6,0,0,0-6-6H180a6,6,0,0,0-6,6V530a6,6,0,0,0,6,6Zm0,0" transform="translate(-118 -208)"/>
  <path id="_graph-2_" data-name="&lt;graph-2&gt;" d="M334,536a6,6,0,0,0,6-6V276.67h47.33V530a6,6,0,0,0,12,0V333.33H450V530a6,6,0,0,0,12,0V327.33a6,6,0,0,0-6-6H399.33V270.67a6,6,0,0,0-6-6H334a6,6,0,0,0-6,6V530a6,6,0,0,0,6,6Zm0,0" transform="translate(-118 -208)"/>
</svg>
