<svg id="Layer_1" xmlns="http://www.w3.org/2000/svg" viewBox="0 0 440 300"><style>.st0,.st1{fill-rule:evenodd;clip-rule:evenodd}.st1{fill:#e6383b}</style><path class="st1" d="M153.1 40.2c-3.6 0-6.5 2.9-6.5 6.5v214.2c0 3.6 2.9 6.5 6.5 6.5s6.5-2.9 6.5-6.5V46.6c0-3.5-2.9-6.4-6.5-6.4zM72.7 127.7c-3.6 0-6.4 2.9-6.4 6.4V173c0 3.6 2.9 6.5 6.4 6.5 3.6 0 6.5-2.9 6.5-6.5v-38.8c0-3.6-2.9-6.5-6.5-6.5zM233.6 33.7c-3.6 0-6.5 2.9-6.5 6.5v183.5c0 3.6 2.9 6.4 6.5 6.4s6.5-2.9 6.5-6.4V40.2c0-3.6-2.9-6.5-6.5-6.5zM112.9 75c-3.6 0-6.5 2.9-6.5 6.5v142.4c0 3.6 2.9 6.4 6.5 6.4s6.4-2.9 6.4-6.4V81.5c.1-3.6-2.8-6.5-6.4-6.5zM273.8 49.9c-3.6 0-6.4 2.9-6.4 6.5v210.9c0 3.6 2.9 6.5 6.4 6.5 3.6 0 6.5-2.9 6.5-6.5V56.4c0-3.6-2.9-6.5-6.5-6.5zM193.4 5.1c-3.6 0-6.5 2.9-6.5 6.5v278.5c0 3.6 2.9 6.5 6.5 6.5s6.5-2.9 6.5-6.5V11.6c-.1-3.6-3-6.5-6.5-6.5zM354.8 127.1c-3.6 0-6.4 2.9-6.4 6.4v38.8c0 3.6 2.9 6.5 6.4 6.5 3.6 0 6.5-2.9 6.5-6.5v-38.8c-.1-3.5-3-6.4-6.5-6.4zM312.1 76.2c-3.6 0-6.5 2.9-6.5 6.5v142.4c0 3.6 2.9 6.4 6.5 6.4s6.4-2.9 6.4-6.4V82.7c0-3.6-2.9-6.5-6.4-6.5zM402.1 152.6c0 3.6 2.9 6.4 6.4 6.4H428c3.6 0 6.5-2.9 6.5-6.4 0-3.6-2.9-6.5-6.5-6.5h-19.4c-3.6.1-6.5 3-6.5 6.5zM6.6 153.5c0 3.6 2.9 6.4 6.4 6.4h19.4c3.6 0 6.5-2.9 6.5-6.4 0-3.6-2.9-6.5-6.5-6.5H13c-3.5 0-6.4 2.9-6.4 6.5z"/></svg>
