<svg id="Слой_1" xmlns="http://www.w3.org/2000/svg" viewBox="0 0 220 250"><style>.st0{fill:#e6383b}.st1{fill:none;stroke:#40ade8;stroke-miterlimit:10}</style><path class="st0" d="M44.1 154.8l2.4-2.4 16.8 16.9-2.3 2.5z"/><circle class="st0" cx="75.3" cy="140.7" r="2.1"/><circle class="st0" cx="98.7" cy="117.3" r="2.1"/><circle class="st0" cx="26.9" cy="188.9" r="2.1"/><circle class="st0" cx="3.5" cy="212.7" r="2.1"/><path class="st0" d="M47.6 110.3s.3 1.7 1.8 1.7c1.6 0 1.6-1.7 1.6-1.7s5.1-46.2 48.5-46.2c39.6 0 46.9 46.1 46.9 46.1s.1 1.8 1.8 1.8c1.6 0 1.6-1.8 1.6-1.8s-7.6-49.5-50.3-49.5c-46 0-51.9 49.6-51.9 49.6z"/><path class="st0" d="M26.9 110.5s.2 1.6 1.6 1.6c1.4 0 1.8-1.6 1.8-1.6s.9-19.3 8.4-32.2C48.8 60.9 51 62.4 51 62.4s16.4-19.6 48-19.6 69.3 24 69.3 69.8c0 16-6.4 29.7-14.6 40.8l-18.9 27.3s-2.3 1.8-2.3 8.6v30s0 4.4-2 6.4-10.8 15.4-10.8 15.4-2.4 2.6-5.5 2.6-15.9 2.2-15.9 2.2-1 .7-.6 2.1 1.6 1 1.6 1l19-2.4s1.6.2 3.9-3.2c2.4-3.4 11.8-17 11.8-17s1.7-1.7 1.7-5.7v-31.6s0-4 1.8-6.7 27.6-41.5 27.6-41.5 3.6-8.6 5.7-16.9c2.4-9.5 1.1-20.7-1.4-30.9S149 39.4 98.8 39.4c-48.2 0-65.2 41.5-63.1 37.4 2.1-4.2-8.8 11.3-8.8 33.7z"/><path class="st1" d="M144.5 23.1"/><path class="st0" d="M185.7 37.1c-11.5-12.2-29.8-22.3-43.4-27l.8-2.3c13.7 4.6 32.8 14.8 44.6 27.5 11.9 12.7 21 32.5 24.6 46.5l-2.3.2c-3.9-13.8-12.8-32.7-24.3-44.9z" id="XMLID_5_"/><path class="st0" d="M171.7 47.7c11.9 12.7 21 32.5 24.6 46.5l-2.5.4c-3.9-13.9-12.7-32.7-24.2-45s-29.8-22.3-43.4-27l.8-2.3c13.8 4.5 32.9 14.8 44.7 27.4z" id="XMLID_4_"/></svg>
